name processed_emg_signals
nRows=66
nColumns=7
 
endheader
time	RGLTMED	RRF	RADDLONG	RST	RTA	RGM
1.1251999999999993	-0.0169375166296958	-0.0334172621369361	0.3593499660491943	-0.0074769230559468	0.0257877446711063	0.0135805271565914
1.1351999999999993	-0.0221255831420421	-0.026092929765582	0.1676966547966003	-0.0172426961362361	0.0148012489080429	0.0312809944152832
1.145199999999999	-0.0245670266449451	-0.0288395546376705	0.2684061825275421	-0.0090028252452611	-0.0212100427597761	0.01449606847018
1.1551999999999991	-0.0163271557539701	-0.0401312299072742	0.4460211992263794	-0.0080872839316725	0.0080872792750597	0.0312809944152832
1.1651999999999991	-0.0154116144403815	-0.0340276211500167	-0.1606775075197219	-0.0032043969258666	0.0224307589232921	0.0511177219450473
1.1751999999999991	-0.0160219743847847	0.0160219706594944	-0.4246585965156555	-0.0035095773637294	0.0209048576653003	0.0404364056885242
1.1851999999999991	-0.0279240123927593	-0.025177389383316	-0.5363546013832092	0.0074769183993339	-0.0315861776471138	-0.006866562180221
1.1951999999999992	-0.0212100427597761	-0.0144960731267929	-0.312352180480957	-0.0016784947365522	0.0968947857618331	0.0331120751798152
1.2051999999999992	-0.0236514862626791	-0.0508125461637973	0.2482642829418182	0.0617990344762802	-0.046540018171072	0.0050354748964309
1.2151999999999992	-0.0212100427597761	-0.0166323371231555	0.4924086332321167	0.0068665575236082	-0.0035095773637294	0.0193789564073085
1.2251999999999992	-0.0151064340025186	-0.041657131165266	0.4170290529727936	-0.0013733142986893	-0.0053406599909067	0.063324935734272
1.2351999999999992	-0.0230411253869533	0.0221255794167518	-0.0996414124965667	-0.0282291918992996	0.0148012489080429	0.0431830286979675
1.2451999999999992	-0.0263981111347675	-0.0459296591579914	-0.5705348253250122	0.0233463011682033	-0.0111390883103013	-0.0001525925472378
1.2551999999999992	-0.0166323371231555	-0.0218204036355018	-0.5342183709144592	-0.0190737806260585	0.0035095727071166	0.0117494445294141
1.2651999999999992	-0.0379949659109115	-0.039215687662363	-0.1701380908489227	0.0343327969312667	0.0010681292042136	-0.0340276211500167
1.2751999999999992	-0.046540018171072	-0.0144960731267929	0.0056458357721567	0.1243610233068466	0.0544747039675712	0.0889600962400436
1.285199999999999	-0.0199893210083246	-0.0526436269283294	-0.0535591691732406	-0.0062562013044953	-0.0071717426180839	0.01449606847018
1.295199999999999	-0.030975816771388	-0.0733959004282951	0.1286335587501526	-0.0004577729851007	0.041962306946516	-0.0331120789051055
1.305199999999999	-0.0370794236660003	-0.025177389383316	0.1222247630357742	-0.0794995054602623	-0.0190737806260585	-0.0386053286492824
1.315199999999999	-0.0019836751744151	0.0022888509556651	0.1084916442632675	-0.0364690646529197	-0.0587472356855869	-0.0245670266449451
1.325199999999999	-0.011749449186027	0.0074769183993339	0.0724803507328033	0.0434882119297981	-0.0273136515170335	0.0392156839370727
1.335199999999999	-0.0041199382394552	-0.0291447341442108	-0.0849927514791488	0.0386053249239921	0.027924008667469	0.0572213307023048
1.345199999999999	-0.0099183665588498	-0.0404364094138145	-0.1115434542298317	-0.0047302991151809	0.0193789564073085	0.0572213307023048
1.355199999999999	-0.0318913571536541	0.0019836705178022	0.0914015397429466	-0.0016784947365522	0.0309758111834526	0.0514229014515876
1.365199999999999	-0.0056458404287695	-0.0386053286492824	0.2058442085981369	0.0141908880323171	-0.0047302991151809	-0.0965896099805831
1.375199999999999	-0.0059510208666324	-0.0303654558956623	0.2336156219244003	0.026398105546832	0.0013733096420764	-0.0703440904617309
1.385199999999999	-0.0169375166296958	-0.0355535224080085	0.1832608580589294	0.0056458357721567	-0.0193789601325988	-0.0126649904996156
1.395199999999999	-0.028534373268485	-0.0172426961362361	0.0596627742052078	0.0663767457008361	-0.0129701709374785	0.0416571274399757
1.4051999999999991	-0.022735945880413	-0.0111390883103013	-0.1094071865081787	0.0218203999102115	-0.0065613817423582	0.1322957128286361
1.4151999999999991	-0.0105287274345755	-0.0401312299072742	-0.1838712096214294	-0.0001525925472378	-0.0013733142986893	0.0798046812415123
1.4251999999999991	-0.0190737806260585	-0.0245670266449451	-0.1225299462676048	0.0056458357721567	-0.0019836751744151	0.0242618434131145
1.435199999999999	-0.0169375166296958	-0.0123598100617527	-0.0822461321949958	-0.0132753513753414	0.0010681292042136	-0.0138857122510671
1.445199999999999	-0.0080872839316725	-0.0184634178876876	-0.0352483429014682	-0.0022888556122779	0.0111390836536884	-0.0144960731267929
1.455199999999999	-0.0187685992568731	-0.0157167948782444	0.0349431559443473	0.0141908880323171	-0.0004577729851007	-0.0361638851463794
1.465199999999999	-0.0083924643695354	-0.030975816771388	0.1170366927981376	-0.0212100427597761	0.0065613770857453	-0.027618832886219
1.475199999999999	-0.0102235469967126	-0.0184634178876876	0.1948577016592025	-0.0154116144403815	0.0080872792750597	-0.0212100427597761
1.485199999999999	-0.0065613817423582	-0.0212100427597761	0.0785839632153511	0.0141908880323171	-0.009308005683124	0.0148012489080429
1.495199999999999	-0.0352483429014682	-0.0401312299072742	-0.0474555604159832	0.007171737961471	-0.0169375166296958	-0.0074769230559468
1.505199999999999	-0.0263981111347675	-0.0328068993985652	-0.1533531695604324	-0.0096131861209869	0.012054624967277	0.027924008667469
1.515199999999999	-0.0196841396391391	-0.0288395546376705	-0.1744106262922287	-0.0108339078724384	-0.0096131861209869	-0.0099183665588498
1.525199999999999	-0.0056458404287695	0.018158234655857	-0.1506065428256988	0.0224307589232921	0.026398105546832	0.0740062519907951
1.535199999999999	-0.0062562013044953	-0.027618832886219	-0.2696269154548645	0.0193789564073085	-0.0013733142986893	0.0361638814210891
1.545199999999999	-0.0230411253869533	-0.0279240123927593	0.0431830286979675	-0.011749449186027	0.0193789564073085	0.009613181464374
1.555199999999999	-0.0215152241289615	-0.0331120789051055	0.3431754112243652	-0.0056458404287695	0.0013733096420764	0.0141908880323171
1.565199999999999	-0.0151064340025186	-0.0263981111347675	0.3303578197956085	-0.0028992164880037	-0.0157167948782444	-0.0361638851463794
1.5751999999999988	-0.0184634178876876	-0.027618832886219	0.1255817413330078	0.0032043922692537	-0.0123598100617527	-0.0028992164880037
1.5851999999999988	-0.0233463048934936	-0.022735945880413	0.0080872792750597	-0.0016784947365522	0.0028992118313908	0.0166323315352201
1.5951999999999988	-0.0169375166296958	-0.0273136515170335	-0.0672922879457473	-0.0038147578015923	-0.0025940360501408	0.0157167911529541
1.6051999999999988	-0.0184634178876876	-0.0181582383811473	-0.0270084701478481	0.01449606847018	-0.0074769230559468	0.023041121661663
1.6151999999999989	-0.0257877483963966	-0.0090028252452611	-0.0132753513753414	0.0114442640915513	-0.0065613817423582	0.0004577683284878
1.6251999999999989	-0.0083924643695354	-0.017853058874607	-0.0114442687481641	-0.0019836751744151	0.0025940313935279	-0.030975816771388
1.6351999999999989	-0.025177389383316	-0.0199893210083246	0.0233463011682033	0.0016784900799393	0.0019836705178022	0.0209048576653003
1.6451999999999989	-0.0071717426180839	-0.0181582383811473	0.0447089299559593	-0.0013733142986893	-0.0102235469967126	0.0331120751798152
1.655199999999999	-0.0086976448073983	-0.0483711026608943	-0.004425118677318	-0.0114442687481641	-0.0123598100617527	-0.0065613817423582
1.665199999999999	-0.0126649904996156	-0.0074769230559468	-0.0895704627037048	-0.0019836751744151	0.000152587890625	-0.0083924643695354
1.675199999999999	-0.0199893210083246	0.0065613770857453	-0.1200885027647018	0.0108339032158255	-0.0022888556122779	0.0160219706594944
1.685199999999999	-0.0135805318132042	-0.0331120789051055	-0.1640344858169555	-0.0010681338608264	0.0053406553342938	0.0337224379181861
1.695199999999999	-0.0083924643695354	-0.0294499136507511	-0.0621042214334011	-0.0074769230559468	0.0233463011682033	0.0425726696848869
1.705199999999999	-0.0059510208666324	-0.0138857122510671	-0.113679714500904	0.0013733096420764	0.0135805271565914	0.0035095727071166
1.7151999999999987	-0.0016784947365522	-0.0144960731267929	-0.3083848357200622	0.0163271501660347	-0.0028992164880037	-0.0212100427597761
1.7251999999999987	-0.0331120789051055	-0.0224307645112276	-0.2967879772186279	0.0108339032158255	-0.0028992164880037	0.0267032869160175
1.7351999999999987	-0.0090028252452611	-0.026092929765582	-0.004425118677318	-0.0315861776471138	-0.0035095773637294	-0.009308005683124
1.7451999999999988	-0.027618832886219	-0.0190737806260585	0.2555886209011078	0.0117494445294141	0.0090028205886483	0.004730294458568
1.7551999999999988	-0.0221255831420421	-0.0160219743847847	0.2229343056678772	0.0166323315352201	0.0044251140207052	0.0212100371718406
1.7651999999999988	-0.0160219743847847	-0.0419623106718063	0.2851911187171936	-0.0047302991151809	-0.0163271557539701	-0.0135805318132042
1.7751999999999988	-0.0160219743847847	-0.0083924643695354	0.4637216627597809	0.0025940313935279	0.0010681292042136	0.0209048576653003
